<svg id="Layer_1" data-name="Layer 1" xmlns="http://www.w3.org/2000/svg" viewBox="0 0 512 469.49"><defs><style>.cls-1{fill:#009640;}</style></defs><path class="cls-1" d="M95,486,104,473C85.41,494.6,60.41,488.6,33.08,490.75c19.23-14.49,35.21-26.56,51.22-38.57q48.54-36.4,97.15-72.7c5.17-3.85,9.36-7.88,11.46-14.33,6.28-19.19,9.38-40.88,20.7-56.56,11.12-15.41,33.84-19,50.91-28.78,1.42-.81,2.54-2.16,7.48-6.47-55.78-6.33-81.5-48.94-113.48-84.08l77.84,40.94c-44.68-34.72-102.37-51-138.4-104l77.44,37.69c.48-1,1-2,1.46-3.07-28.22-15.59-56.31-31.43-84.73-46.65a111.45,111.45,0,0,1-30.64-23.7c-18.1-20-36.89-39.33-55.35-59A23.17,23.17,0,0,1,0,21.25Q62.75,48.72,125.48,76.16c58.84,25.73,117.81,51.19,176.49,77.28,21.41,9.52,39.91,24.2,59.6,36.73,8.31,5.29,16.32,7.87,26.42,7.14A367.21,367.21,0,0,1,463.31,200c10,1.34,17.77,5.15,23.76,13.35,4,5.41,8.86,10.14,13.31,15.21,16.7,19,16.25,21.79-6.91,38.38-.19-3-.13-5.55-.54-8-2.5-14.91-18.19-21.65-30.2-12.74-27.07,20.08-53.82,40.6-81,60.5-8.47,6.19-7.31,9.25,1.53,13.18,15.19,6.74,30.57,13.28,44.94,21.53,14.58,8.39,27.63,10.42,41.75-.58,11.13-8.68,22.25-4.36,32.13,3,11.47,8.59,11.29,19.67-.53,30.85-.52-4.24-.42-8.13-1.53-11.64-3.48-11-12.94-14.57-23-8.93-5.09,2.86-10,6-15.13,8.82-9.51,5.22-11.25,13.73-9.07,23.14,2.42,10.49,10.9,8.52,18.7,7.37-8.61,14.57-13.84,15.3-26,5.22-7.78-6.44-14.91-12.93-16.87-23.42-1-5.28-4.82-6.8-9.69-7.68-30-5.44-60.06-10.93-90-16.87-6.24-1.23-9.1,3-12.78,5.73-32.78,24.08-58.8,55.39-88.33,83-7.55,7.05-16,13.6-21.8,22-15.41,22.41-38.12,21.37-61,21.84-.71-6.59,6.86-8.42,7.28-18.29C136.9,486.23,117.11,486.91,95,486Z" transform="translate(0 -21.25)"/></svg>